<svg width="113" height="39" viewBox="0 0 113 39" fill="none" xmlns="http://www.w3.org/2000/svg">
<path d="M45.7616 16.305L53.2597 1.23982L53.2887 1.1969H63.1173L48.8158 29.5388L48.7869 29.5817H42.8521L42.8231 29.5388L28.5217 1.1969H38.3503L38.3793 1.23982L45.7616 16.305Z" fill="black"/>
<path d="M0.715088 15.561C0.715088 23.8447 7.85132 30.5689 16.6377 30.5689C19.5183 30.5689 22.312 29.8393 24.8162 28.4229C24.8306 25.7761 24.932 23.2295 24.9899 21.484C16.16 25.819 10.4134 21.1979 10.4134 15.4179C10.4134 9.63795 16.16 5.01683 24.9899 9.35181C24.932 7.60637 24.8162 5.05975 24.8162 2.41298C22.312 1.0109 19.5183 0.28125 16.6377 0.28125C7.85132 0.28125 0.715088 7.01979 0.715088 15.2892V15.561Z" fill="black"/>
<path d="M107.382 28.3656C110.212 28.3656 112.506 26.0981 112.506 23.301C112.506 20.5038 110.212 18.2363 107.382 18.2363C104.552 18.2363 102.258 20.5038 102.258 23.301C102.258 26.0981 104.552 28.3656 107.382 28.3656Z" fill="black"/>
<path d="M96.0193 14.5739C96.0193 22.5142 90.2003 28.6375 83.1364 28.6375C79.5176 28.6375 76.8831 27.4072 75.1027 25.3899V38.5522H67.0111V1.23987H75.1027V3.74357C76.8831 1.712 79.5176 0.495911 83.1364 0.495911C90.2003 0.495911 96.0193 6.63356 96.0193 14.5739ZM87.9277 14.5739C87.9277 10.5823 85.2353 8.07856 81.5152 8.07856C77.7951 8.07856 75.1027 10.5823 75.1027 14.5739C75.1027 18.5655 77.7951 21.0692 81.5152 21.0692C85.2353 21.0692 87.9277 18.5655 87.9277 14.5739Z" fill="black"/>
</svg>
